<svg width="235" height="57" viewBox="0 0 235 57" fill="none" xmlns="http://www.w3.org/2000/svg">
<path d="M52.3385 46.2209H65.4634V44.7665C63.3705 44.5892 62.2354 44.5892 61.8807 43.9861C61.7388 43.7733 61.7388 43.7378 61.7388 41.6094V30.0454H65.1441C68.1238 30.0454 70.4296 30.9676 71.2454 34.3375C71.6002 35.7565 72.1677 39.6585 72.6998 41.9642C73.4447 45.1212 75.3248 46.2209 78.269 46.2209H82.2774V44.7665C78.4109 44.3763 77.6305 41.6094 77.1694 38.2395C76.5663 33.8055 75.6795 30.471 70.4296 29.194V29.0876C75.0765 28.2008 78.5173 25.0792 78.5173 20.3613C78.5173 15.5725 75.5376 11.8479 66.8468 11.8479H52.3385V13.3022C56.7016 13.586 56.8081 13.6924 56.8081 16.4593V41.6094C56.8081 44.3763 56.7016 44.4827 52.3385 44.7665V46.2209ZM61.7388 28.3072V16.0691C61.7388 13.9762 62.058 13.586 65.357 13.586C69.0107 13.586 73.1964 14.934 73.1964 20.787C73.1964 26.0015 70.465 28.3072 65.6408 28.3072H61.7388ZM85.0088 34.2666C85.0088 42.1061 88.3787 46.8239 96.502 46.8239C102 46.8239 104.838 43.7378 106.186 39.8003L104.696 39.0199C103.277 41.8932 101.397 44.2699 97.4952 44.2699C91.323 44.2699 90.0814 38.3105 90.1879 33.1669H104.483C105.512 33.1669 106.47 32.9186 106.47 31.2869C106.47 28.3427 105.512 21.2836 96.431 21.2836C88.698 21.2836 85.0088 26.8173 85.0088 34.2666ZM90.2233 31.2869C90.2233 29.2295 90.9683 23.0218 96.1473 23.0218C100.759 23.0218 101.291 27.7396 101.291 29.6906C101.291 30.6129 101.007 31.2869 99.6236 31.2869H90.2233ZM110.549 39.7649C110.549 43.4895 113.032 46.8239 117.679 46.8239C120.588 46.8239 123.497 44.8729 125.093 43.8442C125.802 45.6888 126.583 46.8239 128.321 46.8239C130.166 46.8239 132.294 46.2564 134.174 45.3341L133.89 44.128C133.181 44.2699 132.081 44.3763 131.336 44.199C130.449 43.9861 129.598 43.0284 129.598 39.9068V27.8815C129.598 25.0082 128.959 21.2836 121.475 21.2836C115.87 21.2836 111.436 24.2278 111.436 26.9592C111.436 28.5555 113.281 29.3004 114.203 29.3004C115.267 29.3004 115.551 28.7329 115.799 27.8815C116.899 24.2278 118.921 23.0218 120.907 23.0218C122.858 23.0218 125.128 24.015 125.128 27.9879V30.0808C123.887 31.3578 119.098 32.5994 115.161 33.8409C111.578 34.9406 110.549 37.4237 110.549 39.7649ZM115.551 39.0554C115.551 36.7497 116.65 35.5436 119.417 34.5149C121.404 33.77 124.064 32.8122 125.128 32.1028V39.1264C125.128 43.1348 122.078 44.199 120.127 44.199C117.041 44.199 115.551 41.9996 115.551 39.0554ZM136.515 34.5504C136.515 41.8932 140.346 46.8239 146.909 46.8239C149.569 46.8239 151.91 45.6179 154.606 43.454V45.8662L154.996 46.2209H163.049V44.7665C159.501 44.5182 159.324 44.4473 159.324 41.8932V9.68403L158.969 9.36478L151.165 10.6063V11.8479L153.045 12.0607C154.358 12.2026 154.642 12.4509 154.642 14.331V22.4897C153.258 21.7447 151.414 21.2836 149.143 21.2836C145.064 21.2836 142.013 22.5961 139.956 24.7244C137.792 26.9592 136.515 30.2227 136.515 34.5504ZM141.694 33.9473C141.694 27.4913 144 23.0218 149.073 23.0218C151.414 23.0218 153.294 24.1214 154.181 26.1434C154.606 26.9947 154.642 27.7042 154.642 29.0521V37.7784C154.642 38.8781 154.606 39.7294 154.287 40.5453C153.294 43.1348 151.13 44.128 148.54 44.128C143.964 44.128 141.694 39.6584 141.694 33.9473ZM165.461 46.2209H177.238V44.7665C174.01 44.5182 172.804 44.3763 172.52 42.2834C172.272 40.6517 172.165 38.7716 172.165 36.1467V16.4238H172.272L185.077 45.6179H186.425L199.373 16.4238H199.55V41.6094C199.55 44.3763 199.444 44.4827 195.081 44.7665V46.2209H208.915V44.7665C204.587 44.4827 204.445 44.3763 204.445 41.6094V16.4593C204.445 13.6924 204.587 13.586 208.915 13.3022V11.8479H198.947C197.244 16.2819 195.222 20.6451 193.236 25.0082L187.277 38.3105H187.17L181.317 25.0792C179.366 20.6451 177.273 16.2819 175.5 11.8479H165.425V13.3022C169.789 13.586 169.895 13.6924 169.895 16.4593V36.1467C169.895 38.7716 169.789 40.6517 169.54 42.2834C169.256 44.3763 168.05 44.5892 165.461 44.7665V46.2209ZM213.101 34.2666C213.101 42.1061 216.471 46.8239 224.558 46.8239C230.092 46.8239 232.894 43.7378 234.242 39.8003L232.753 39.0199C231.369 41.8932 229.489 44.2699 225.552 44.2699C219.415 44.2699 218.173 38.3105 218.244 33.1669H232.575C233.604 33.1669 234.562 32.9186 234.562 31.2869C234.562 28.3427 233.604 21.2836 224.523 21.2836C216.754 21.2836 213.101 26.8173 213.101 34.2666ZM218.315 31.2869C218.315 29.2295 219.06 23.0218 224.204 23.0218C228.851 23.0218 229.383 27.7396 229.383 29.6906C229.383 30.6129 229.099 31.2869 227.68 31.2869H218.315Z" fill="black"/>
<path d="M40.0397 19.9768L20.0629 0L0.0860395 19.9768L20.0629 39.9519L40.0397 19.9768ZM20.0629 10.581L29.4569 19.9751L20.0629 29.3709L10.6688 19.9768L20.0629 10.581ZM40.1258 26.284L30.1804 36.2294V56.1887H40.1258V26.284ZM9.94541 36.2294L0 26.284V56.1887H9.94541V36.2294Z" fill="black"/>
</svg>
